<?xml version="1.0" standalone="no"?>
<!DOCTYPE svg PUBLIC "-//W3C//DTD SVG 20010904//EN"
 "http://www.w3.org/TR/2001/REC-SVG-20010904/DTD/svg10.dtd">
<svg version="1.0" xmlns="http://www.w3.org/2000/svg"
 width="258.000000pt" height="258.000000pt" viewBox="0 0 258.000000 258.000000"
 preserveAspectRatio="xMidYMid meet">
<metadata>
Created by potrace 1.11, written by Peter Selinger 2001-2013
</metadata>
<g transform="translate(0.000000,258.000000) scale(0.100000,-0.100000)"
fill="#000000" stroke="none">
<path d="M865 2180 l-410 -239 -142 0 -143 -1 0 -648 0 -647 559 -323 560
-323 34 18 c18 10 271 155 560 323 l527 304 0 648 0 648 -139 0 -139 0 -416
240 c-229 132 -421 240 -428 239 -7 0 -197 -108 -423 -239z m735 -384 c41 -8
94 -19 118 -25 l42 -12 0 -65 c0 -59 -2 -65 -17 -59 -108 45 -163 58 -253 59
-83 1 -101 -2 -145 -24 -62 -31 -89 -75 -88 -142 1 -91 32 -112 232 -158 154
-35 214 -63 269 -125 91 -103 81 -285 -20 -382 -95 -91 -291 -115 -503 -62
-117 30 -115 29 -115 105 0 49 3 65 13 61 129 -56 169 -70 236 -79 193 -28
322 48 309 184 -10 95 -62 133 -240 172 -149 32 -208 58 -257 111 -110 119
-68 334 80 410 79 41 213 53 339 31z m-710 -506 l0 -500 -65 0 -65 0 0 500 0
500 65 0 65 0 0 -500z"/>
</g>
</svg>
